<svg xmlns="http://www.w3.org/2000/svg" width="470" height="336" viewBox="0 0 470 336" role="img" aria-label="> TECH SPLIT (bytes)">
<title>> TECH SPLIT (bytes)</title>
<defs><pattern id="scan" width="4" height="4" patternUnits="userSpaceOnUse"><rect width="4" height="1.3" fill="#000000" opacity="0.45"/></pattern><linearGradient id="bar" x1="0" y1="0" x2="1" y2="0"><stop offset="0%" stop-color="#b87400"/><stop offset="100%" stop-color="#ffb000"/></linearGradient></defs>
<rect width="470" height="336" rx="12" fill="#0b0f0d"/>
<rect x="1" y="1" width="468" height="334" rx="11" fill="none" stroke="#ffb000" stroke-opacity="0.55" stroke-width="1.4"/>
<rect x="1" y="1" width="468" height="334" rx="11" fill="url(#scan)" opacity="0.35"/>
<text x="22" y="34" font-family="ui-monospace, 'Courier New', monospace" font-size="14" font-weight="700" fill="#ffb000" letter-spacing="2">> TECH SPLIT (bytes)</text>
<rect x="22" y="42" width="426" height="1" fill="#ffb000" opacity="0.35"/>
<text x="26" y="76" font-family="ui-monospace, 'Courier New', monospace" font-size="12" fill="#d7d2c4">Python</text>
<rect x="170" y="65" width="260" height="12" rx="3" fill="#d7d2c4" opacity="0.10"/>
<rect x="170" y="65" width="164" height="12" rx="3" fill="url(#bar)"/>
<text x="444" y="76" text-anchor="end" font-family="ui-monospace, 'Courier New', monospace" font-size="12" fill="#ffb000">63.3%</text>
<text x="26" y="106" font-family="ui-monospace, 'Courier New', monospace" font-size="12" fill="#d7d2c4">HTML</text>
<rect x="170" y="95" width="260" height="12" rx="3" fill="#d7d2c4" opacity="0.10"/>
<rect x="170" y="95" width="58" height="12" rx="3" fill="url(#bar)"/>
<text x="444" y="106" text-anchor="end" font-family="ui-monospace, 'Courier New', monospace" font-size="12" fill="#ffb000">22.4%</text>
<text x="26" y="136" font-family="ui-monospace, 'Courier New', monospace" font-size="12" fill="#d7d2c4">C</text>
<rect x="170" y="125" width="260" height="12" rx="3" fill="#d7d2c4" opacity="0.10"/>
<rect x="170" y="125" width="14" height="12" rx="3" fill="url(#bar)"/>
<text x="444" y="136" text-anchor="end" font-family="ui-monospace, 'Courier New', monospace" font-size="12" fill="#ffb000"> 5.7%</text>
<text x="26" y="166" font-family="ui-monospace, 'Courier New', monospace" font-size="12" fill="#d7d2c4">Jupyter Notebook</text>
<rect x="170" y="155" width="260" height="12" rx="3" fill="#d7d2c4" opacity="0.10"/>
<rect x="170" y="155" width="10" height="12" rx="3" fill="url(#bar)"/>
<text x="444" y="166" text-anchor="end" font-family="ui-monospace, 'Courier New', monospace" font-size="12" fill="#ffb000"> 4.1%</text>
<text x="26" y="196" font-family="ui-monospace, 'Courier New', monospace" font-size="12" fill="#d7d2c4">C++</text>
<rect x="170" y="185" width="260" height="12" rx="3" fill="#d7d2c4" opacity="0.10"/>
<rect x="170" y="185" width="5" height="12" rx="3" fill="url(#bar)"/>
<text x="444" y="196" text-anchor="end" font-family="ui-monospace, 'Courier New', monospace" font-size="12" fill="#ffb000"> 2.0%</text>
<text x="26" y="226" font-family="ui-monospace, 'Courier New', monospace" font-size="12" fill="#d7d2c4">JavaScript</text>
<rect x="170" y="215" width="260" height="12" rx="3" fill="#d7d2c4" opacity="0.10"/>
<rect x="170" y="215" width="1" height="12" rx="3" fill="url(#bar)"/>
<text x="444" y="226" text-anchor="end" font-family="ui-monospace, 'Courier New', monospace" font-size="12" fill="#ffb000"> 0.7%</text>
<text x="26" y="256" font-family="ui-monospace, 'Courier New', monospace" font-size="12" fill="#d7d2c4">Svelte</text>
<rect x="170" y="245" width="260" height="12" rx="3" fill="#d7d2c4" opacity="0.10"/>
<rect x="170" y="245" width="1" height="12" rx="3" fill="url(#bar)"/>
<text x="444" y="256" text-anchor="end" font-family="ui-monospace, 'Courier New', monospace" font-size="12" fill="#ffb000"> 0.5%</text>
<text x="26" y="286" font-family="ui-monospace, 'Courier New', monospace" font-size="12" fill="#d7d2c4">CSS</text>
<rect x="170" y="275" width="260" height="12" rx="3" fill="#d7d2c4" opacity="0.10"/>
<rect x="170" y="275" width="1" height="12" rx="3" fill="url(#bar)"/>
<text x="444" y="286" text-anchor="end" font-family="ui-monospace, 'Courier New', monospace" font-size="12" fill="#ffb000"> 0.5%</text>
<text x="26" y="322" font-family="ui-monospace, 'Courier New', monospace" font-size="11" fill="#26ff6a" opacity="0.8">from 18 public repos · make_stats_cards.py</text>
</svg>
